<?xml version="1.0" encoding="utf-8"?>
<svg xmlns="http://www.w3.org/2000/svg" xmlns:xlink="http://www.w3.org/1999/xlink" width="2560" height="1440" overflow="hidden">
<defs>
<clipPath id="clip0">
<rect x="0" y="0" width="2560" height="1440"/>
</clipPath>
</defs>
<g clip-path="url(#clip0)">
<rect x="0" y="0" width="2560" height="1440" fill="#FFFFFF"/>
<text fill="#6F6F6F" font-family="IBM Plex Sans,IBM Plex Sans_MSFontService,sans-serif" font-weight="700" font-size="19" transform="translate(105.062 1394)">IBM Data &amp; AI, Hybrid Data Management<tspan fill="#7A7A7A" font-weight="400" font-size="19" x="0" y="22">©2020 IBM Corporation </tspan></text>
<path d="M1785.5 666.5 1870.61 666.5 1870.61 1192.61" stroke="#686F76" stroke-width="10.6667" stroke-linecap="round" stroke-linejoin="round" stroke-miterlimit="10" stroke-dasharray="0 21.3333" fill="none" fill-rule="evenodd"/>
<path d="M1421.17 1071.5 1421.17 1117.33 1421.92 1117.33 1421.92 1224.05 1418.5 1224.05" stroke="#45A4FC" stroke-width="10.6667" stroke-linecap="round" stroke-linejoin="round" stroke-miterlimit="10" stroke-dasharray="0 21.3333" fill="none" fill-rule="evenodd"/>
<path d="M1216.68 1061.5 1216.68 1148.14 1208.5 1148.14 1208.5 1234.77" stroke="#45A4FC" stroke-width="10.6667" stroke-linecap="round" stroke-linejoin="round" stroke-miterlimit="10" stroke-dasharray="0 21.3333" fill="none" fill-rule="evenodd"/>
<path d="M1014.5 1061.5 1014.5 1112.5 1016.75 1112.5 1016.75 1224.39 1014.5 1224.39" stroke="#45A4FC" stroke-width="10.6667" stroke-linecap="round" stroke-linejoin="round" stroke-miterlimit="10" stroke-dasharray="0 21.3333" fill="none" fill-rule="evenodd"/>
<path d="M823.21 1063.5 823.21 1113.38 825.604 1113.38 825.604 1224.16 813.5 1224.16" stroke="#45A4FC" stroke-width="10.6667" stroke-linecap="round" stroke-linejoin="round" stroke-miterlimit="10" stroke-dasharray="0 21.3333" fill="none" fill-rule="evenodd"/>
<text fill="#6F6F6F" font-family="IBM Plex Sans,IBM Plex Sans_MSFontService,sans-serif" font-weight="700" font-size="19" transform="translate(105.062 1394)">IBM Data &amp; AI, Hybrid Data Management<tspan fill="#7A7A7A" font-weight="400" font-size="19" x="0" y="22">©2020 IBM Corporation </tspan><tspan font-weight="400" font-size="19" x="2357.87" y="-21">8</tspan><tspan fill="#1192E8" font-size="80" x="1928.81" y="-1274">Architecture</tspan><tspan fill="#3E4247" font-style="italic" font-weight="400" font-size="40" x="1941.48" y="-1120">IBM</tspan><tspan fill="#3E4247" font-style="italic" font-weight="400" font-size="40" x="2013.31" y="-1120">-</tspan><tspan fill="#3E4247" font-style="italic" font-weight="400" font-size="40" x="2028.81" y="-1120">tested and optimized</tspan><tspan fill="#3E4247" font-style="italic" font-weight="400" font-size="40" x="1955.48" y="-1072">Cloud</tspan><tspan fill="#3E4247" font-style="italic" font-weight="400" font-size="40" x="2057.81" y="-1072">-</tspan><tspan fill="#3E4247" font-style="italic" font-weight="400" font-size="40" x="2073.31" y="-1072">native deployment</tspan><tspan fill="#3E4247" font-style="italic" font-weight="400" font-size="40" x="2115.98" y="-976">Full control over</tspan><tspan fill="#3E4247" font-style="italic" font-weight="400" font-size="40" x="2032.31" y="-928">underlying hardware</tspan><tspan fill="#3E4247" font-style="italic" font-weight="400" font-size="41" x="1932.81" y="-829">Deploy to any data center</tspan><tspan fill="#3E4247" font-style="italic" font-weight="400" font-size="41" x="2241.65" y="-780">on day 1 </tspan></text>
<path d="M1760.5 1160C1748.6 1160 1736.7 1161.36 1727.62 1164.09 1709.46 1169.54 1709.46 1178.38 1727.62 1183.84 1745.78 1189.29 1775.22 1189.29 1793.38 1183.84 1811.54 1178.38 1811.54 1169.54 1793.38 1164.09 1784.3 1161.36 1772.4 1160 1760.5 1160ZM1714 1180.29 1733.49 1256.15C1732.55 1268.69 1744.27 1282.41 1760.5 1281.99 1775.89 1281.59 1786.71 1268.49 1785.92 1256.46L1807 1180.29C1800.38 1186.1 1782.06 1190.25 1760.5 1190.25 1738.94 1190.25 1720.61 1186.1 1714 1180.29Z" fill="#5E5E5E" fill-rule="evenodd"/>
<path d="M1869 1160C1857.23 1160 1845.45 1161.36 1836.47 1164.09 1818.51 1169.54 1818.51 1178.38 1836.47 1183.84 1854.43 1189.29 1883.56 1189.29 1901.52 1183.84 1919.49 1178.38 1919.49 1169.54 1901.52 1164.09 1892.54 1161.36 1880.77 1160 1869 1160ZM1823 1180.29 1842.28 1256.15C1841.35 1268.69 1852.95 1282.41 1869 1281.99 1884.22 1281.59 1894.93 1268.49 1894.14 1256.46L1915 1180.29C1908.45 1186.1 1890.33 1190.25 1869 1190.25 1847.67 1190.25 1829.54 1186.1 1823 1180.29Z" fill="#5E5E5E" fill-rule="evenodd"/>
<path d="M1977.5 1160C1965.6 1160 1953.7 1161.36 1944.62 1164.09 1926.46 1169.54 1926.46 1178.38 1944.62 1183.84 1962.78 1189.29 1992.22 1189.29 2010.38 1183.84 2028.54 1178.38 2028.54 1169.54 2010.38 1164.09 2001.3 1161.36 1989.4 1160 1977.5 1160ZM1931 1180.29 1950.49 1256.15C1949.55 1268.69 1961.27 1282.41 1977.5 1281.99 1992.89 1281.59 2003.71 1268.49 2002.92 1256.46L2024 1180.29C2017.38 1186.1 1999.06 1190.25 1977.5 1190.25 1955.94 1190.25 1937.61 1186.1 1931 1180.29Z" fill="#5E5E5E" fill-rule="evenodd"/>
<path d="M1605 1304.02C1605 1296.83 1610.83 1291 1618.02 1291L2119.98 1291C2127.17 1291 2133 1296.83 2133 1304.02L2133 1343.98C2133 1351.17 2127.17 1357 2119.98 1357L1618.02 1357C1610.83 1357 1605 1351.17 1605 1343.98Z" fill="#5E5E5E" fill-rule="evenodd"/>
<text fill="#FFFFFF" font-family="IBM Plex Sans,IBM Plex Sans_MSFontService,sans-serif" font-weight="700" font-size="27" transform="translate(1644.34 1333)">Multi<tspan font-size="27" x="63.5" y="0">-</tspan><tspan font-size="27" x="74.1666" y="0">AZ Object Storage</tspan><tspan font-weight="400" font-size="27" x="307" y="0">for Backups</tspan></text>
<path d="M1216 1163C1204.23 1163 1192.45 1164.36 1183.47 1167.09 1165.51 1172.54 1165.51 1181.38 1183.47 1186.84 1201.43 1192.29 1230.56 1192.29 1248.52 1186.84 1266.49 1181.38 1266.49 1172.54 1248.52 1167.09 1239.54 1164.36 1227.77 1163 1216 1163ZM1170 1183.29 1170 1270.28C1170 1277.97 1190.59 1285 1216 1285 1241.4 1285 1262 1277.97 1262 1270.28L1262 1183.29C1255.45 1189.1 1237.33 1193.26 1216 1193.26 1194.67 1193.26 1176.54 1189.1 1170 1183.29Z" fill="#53585F" fill-rule="evenodd"/>
<path d="M720 1304.02C720 1296.83 725.828 1291 733.018 1291L1496.98 1291C1504.17 1291 1510 1296.83 1510 1304.02L1510 1343.98C1510 1351.17 1504.17 1357 1496.98 1357L733.018 1357C725.828 1357 720 1351.17 720 1343.98Z" fill="#53585F" fill-rule="evenodd"/>
<text fill="#FFFFFF" font-family="IBM Plex Sans,IBM Plex Sans_MSFontService,sans-serif" font-weight="700" font-size="27" transform="translate(946.707 1333)">Block Storage <tspan font-weight="400" font-size="27" x="180.167" y="0">for User Data</tspan></text>
<path d="M1014.5 1163C1002.6 1163 990.698 1164.36 981.62 1167.09 963.458 1172.54 963.458 1181.38 981.62 1186.84 999.777 1192.29 1029.22 1192.29 1047.38 1186.84 1065.54 1181.38 1065.54 1172.54 1047.38 1167.09 1038.3 1164.36 1026.4 1163 1014.5 1163ZM968 1183.29 968 1270.28C968 1277.97 988.817 1285 1014.5 1285 1040.18 1285 1061 1277.97 1061 1270.28L1061 1183.29C1054.38 1189.1 1036.06 1193.26 1014.5 1193.26 992.938 1193.26 974.611 1189.1 968 1183.29Z" fill="#53585F" fill-rule="evenodd"/>
<path d="M1418 1163C1406.23 1163 1394.45 1164.36 1385.47 1167.09 1367.51 1172.54 1367.51 1181.38 1385.47 1186.84 1403.43 1192.29 1432.56 1192.29 1450.52 1186.84 1468.49 1181.38 1468.49 1172.54 1450.52 1167.09 1441.54 1164.36 1429.77 1163 1418 1163ZM1372 1183.29 1372 1270.28C1372 1277.97 1392.59 1285 1418 1285 1443.4 1285 1464 1277.97 1464 1270.28L1464 1183.29C1457.45 1189.1 1439.33 1193.26 1418 1193.26 1396.67 1193.26 1378.54 1189.1 1372 1183.29Z" fill="#53585F" fill-rule="evenodd"/>
<text fill="#FFFFFF" font-family="IBM Plex Sans,IBM Plex Sans_MSFontService,sans-serif" font-style="italic" font-weight="700" font-size="21" transform="translate(1403.84 1218)">N<tspan font-size="14" x="15" y="-7">th</tspan><tspan font-weight="400" font-size="21" x="-20.1667" y="26">volume</tspan></text>
<path d="M1026.5 621.2C1026.5 606.454 1038.45 594.5 1053.2 594.5L1177.8 594.5C1192.55 594.5 1204.5 606.454 1204.5 621.2L1204.5 787.8C1204.5 802.546 1192.55 814.5 1177.8 814.5L1053.2 814.5C1038.45 814.5 1026.5 802.546 1026.5 787.8Z" stroke="#FFFFFF" stroke-width="2.66667" stroke-linejoin="round" stroke-miterlimit="10" fill="#53585F" fill-rule="evenodd"/>
<text fill="#FFFFFF" font-family="IBM Plex Sans,IBM Plex Sans_MSFontService,sans-serif" font-weight="700" font-size="27" transform="translate(1065.46 681)">NZ Host<tspan font-weight="400" font-size="27" x="-4.83337" y="32">Compute</tspan><tspan font-weight="400" font-size="27" x="17.9199" y="64">Node</tspan></text>
<path d="M733.5 871.2C733.5 856.454 745.454 844.5 760.2 844.5L884.8 844.5C899.546 844.5 911.5 856.454 911.5 871.2L911.5 1036.8C911.5 1051.55 899.546 1063.5 884.8 1063.5L760.2 1063.5C745.454 1063.5 733.5 1051.55 733.5 1036.8Z" stroke="#FFFFFF" stroke-width="2.66667" stroke-linejoin="round" stroke-miterlimit="10" fill="#30435F" fill-rule="evenodd"/>
<text fill="#FFFFFF" font-family="IBM Plex Sans,IBM Plex Sans_MSFontService,sans-serif" font-weight="700" font-size="27" transform="translate(775.199 914)">NZ SPU<tspan font-size="27" x="0.753357" y="32">Worker</tspan><tspan font-weight="400" font-size="27" x="-7.5" y="64">Compute </tspan><tspan font-weight="400" font-size="27" x="15.2534" y="96">Node</tspan></text>
<path d="M925.5 868.35C925.5 853.521 937.521 841.5 952.35 841.5L1077.65 841.5C1092.48 841.5 1104.5 853.521 1104.5 868.35L1104.5 1034.65C1104.5 1049.48 1092.48 1061.5 1077.65 1061.5L952.35 1061.5C937.521 1061.5 925.5 1049.48 925.5 1034.65Z" stroke="#FFFFFF" stroke-width="2.66667" stroke-linejoin="round" stroke-miterlimit="10" fill="#30435F" fill-rule="evenodd"/>
<text fill="#FFFFFF" font-family="IBM Plex Sans,IBM Plex Sans_MSFontService,sans-serif" font-weight="700" font-size="27" transform="translate(967.246 912)">NZ SPU<tspan font-size="27" x="0.753357" y="32">Worker</tspan><tspan font-weight="400" font-size="27" x="-7.5" y="64">Compute </tspan><tspan font-weight="400" font-size="27" x="15.2534" y="96">Node</tspan></text>
<path d="M1127.5 868.2C1127.5 853.454 1139.45 841.5 1154.2 841.5L1278.8 841.5C1293.55 841.5 1305.5 853.454 1305.5 868.2L1305.5 1034.8C1305.5 1049.55 1293.55 1061.5 1278.8 1061.5L1154.2 1061.5C1139.45 1061.5 1127.5 1049.55 1127.5 1034.8Z" stroke="#FFFFFF" stroke-width="2.66667" stroke-linejoin="round" stroke-miterlimit="10" fill="#30435F" fill-rule="evenodd"/>
<text fill="#FFFFFF" font-family="IBM Plex Sans,IBM Plex Sans_MSFontService,sans-serif" font-weight="700" font-size="27" transform="translate(1169 912)">NZ SPU<tspan font-size="27" x="0.753296" y="32">Worker</tspan><tspan font-weight="400" font-size="27" x="-7.5" y="64">Compute </tspan><tspan font-weight="400" font-size="27" x="15.2533" y="96">Node</tspan></text>
<path d="M1332.5 868.2C1332.5 853.454 1344.45 841.5 1359.2 841.5L1483.8 841.5C1498.55 841.5 1510.5 853.454 1510.5 868.2L1510.5 1034.8C1510.5 1049.55 1498.55 1061.5 1483.8 1061.5L1359.2 1061.5C1344.45 1061.5 1332.5 1049.55 1332.5 1034.8Z" stroke="#FFFFFF" stroke-width="2.66667" stroke-linejoin="round" stroke-miterlimit="10" fill="#30435F" fill-rule="evenodd"/>
<text fill="#FFFFFF" font-family="IBM Plex Sans,IBM Plex Sans_MSFontService,sans-serif" font-style="italic" font-weight="700" font-size="27" transform="translate(1402.93 928)">N<tspan font-size="18" x="18.6667" y="-9">th</tspan><tspan font-weight="400" font-size="27" x="-35.1666" y="32">Compute</tspan><tspan font-weight="400" font-size="27" x="-13.2466" y="64">Node</tspan></text>
<path d="M812.998 1163C801.226 1163 789.454 1164.36 780.473 1167.09 762.507 1172.54 762.507 1181.38 780.473 1186.84 798.435 1192.29 827.56 1192.29 845.522 1186.84 863.488 1181.38 863.488 1172.54 845.522 1167.09 836.541 1164.36 824.769 1163 812.998 1163ZM767 1183.29 767 1270.28C767 1277.97 787.594 1285 812.998 1285 838.402 1285 858.995 1277.97 858.995 1270.28L858.995 1183.29C852.455 1189.1 834.325 1193.26 812.998 1193.26 791.67 1193.26 773.54 1189.1 767 1183.29Z" fill="#53585F" fill-rule="evenodd"/>
<path d="M348.5 697.2C348.5 682.454 360.454 670.5 375.2 670.5L499.8 670.5C514.546 670.5 526.5 682.454 526.5 697.2L526.5 863.8C526.5 878.546 514.546 890.5 499.8 890.5L375.2 890.5C360.454 890.5 348.5 878.546 348.5 863.8Z" stroke="#FFFFFF" stroke-width="2.66667" stroke-linejoin="round" stroke-miterlimit="10" fill="#53585F" fill-rule="evenodd"/>
<path d="M361.5 711.2C361.5 696.454 373.454 684.5 388.2 684.5L512.8 684.5C527.546 684.5 539.5 696.454 539.5 711.2L539.5 876.8C539.5 891.546 527.546 903.5 512.8 903.5L388.2 903.5C373.454 903.5 361.5 891.546 361.5 876.8Z" stroke="#FFFFFF" stroke-width="2.66667" stroke-linejoin="round" stroke-miterlimit="10" fill="#53585F" fill-rule="evenodd"/>
<path d="M375.5 724.2C375.5 709.454 387.454 697.5 402.2 697.5L526.8 697.5C541.546 697.5 553.5 709.454 553.5 724.2L553.5 889.8C553.5 904.546 541.546 916.5 526.8 916.5L402.2 916.5C387.454 916.5 375.5 904.546 375.5 889.8Z" stroke="#FFFFFF" stroke-width="2.66667" stroke-linejoin="round" stroke-miterlimit="10" fill="#53585F" fill-rule="evenodd"/>
<text fill="#FFFFFF" font-family="IBM Plex Sans,IBM Plex Sans_MSFontService,sans-serif" font-weight="700" font-size="27" transform="translate(400.707 784)">OpenShift<tspan font-weight="400" font-size="27" x="8.24667" y="32">Compute</tspan><tspan font-weight="400" font-size="27" x="-5.66669" y="64">Nodes (HA)</tspan></text>
<path d="M513 704.5C513 685.998 527.775 671 546 671 564.225 671 579 685.998 579 704.5 579 723.002 564.225 738 546 738 527.775 738 513 723.002 513 704.5Z" fill="#D12671" fill-rule="evenodd"/>
<text fill="#DCDEE0" font-family="IBM Plex Sans,IBM Plex Sans_MSFontService,sans-serif" font-weight="700" font-size="35" transform="translate(535.598 716)">3</text>
<rect x="-8.5149e-14" y="544" width="92" height="896" fill="#5E5E5E"/>
<text fill="#FFFFFF" font-family="IBM Plex Sans,IBM Plex Sans_MSFontService,sans-serif" font-weight="700" font-size="48" transform="matrix(-1.83697e-16 -1 1 -1.83697e-16 62.1047 1195)">Cloud<tspan font-size="48" x="131" y="2.40643e-14">-</tspan><tspan font-size="48" x="150" y="2.75546e-14">Native</tspan><tspan font-family="IBM Plex Sans Light,IBM Plex Sans Light_MSFontService,sans-serif" font-weight="300" font-size="48" x="309" y="5.67624e-14">IaaS</tspan></text>
<path d="M286 310.941C286 299.928 294.928 291 305.941 291L1694.06 291C1705.07 291 1714 299.928 1714 310.941L1714 384.059C1714 395.072 1705.07 404 1694.06 404L305.941 404C294.928 404 286 395.072 286 384.059Z" fill="#D12771" fill-rule="evenodd"/>
<text fill="#FFFFFF" font-family="IBM Plex Sans,IBM Plex Sans_MSFontService,sans-serif" font-weight="700" font-size="39" transform="translate(831.465 345)">Red Hat OpenShift<tspan font-style="italic" font-weight="400" font-size="27" x="-86" y="35">Enterprise Kubernetes Application Platform</tspan></text>
<rect x="-5.03081e-14" y="0" width="92" height="540" fill="#5E5E5E"/>
<text fill="#FFFFFF" font-family="IBM Plex Sans,IBM Plex Sans_MSFontService,sans-serif" font-weight="700" font-size="48" transform="matrix(-1.83697e-16 -1 1 -1.83697e-16 62.1047 416)">IBM<tspan font-family="IBM Plex Sans Light,IBM Plex Sans Light_MSFontService,sans-serif" font-weight="300" font-size="48" x="103" y="1.89208e-14">Software</tspan></text>
<path d="M286 140.913C286 129.915 294.915 121 305.913 121L1694.09 121C1705.08 121 1714 129.915 1714 140.913L1714 214.087C1714 225.085 1705.08 234 1694.09 234L305.913 234C294.915 234 286 225.085 286 214.087Z" fill="#1192E8" fill-rule="evenodd"/>
<text fill="#FFFFFF" font-family="IBM Plex Sans,IBM Plex Sans_MSFontService,sans-serif" font-weight="700" font-size="39" transform="translate(739.299 175)">Netezza Performance Server<tspan font-style="italic" font-weight="400" font-size="27" x="-19.5" y="35">Data warehouse database engine, Web Console</tspan></text>
<path d="M1506 659.966C1506 650.044 1514.04 642 1523.97 642L1767.03 642C1776.96 642 1785 650.044 1785 659.966L1785 672.034C1785 681.956 1776.96 690 1767.03 690L1523.97 690C1514.04 690 1506 681.956 1506 672.034Z" fill="#DCDEE0" fill-rule="evenodd"/>
<text font-family="IBM Plex Sans,IBM Plex Sans_MSFontService,sans-serif" font-style="italic" font-weight="400" font-size="27" transform="translate(1551.02 675)">Backup/Restore</text>
<path d="M1176 596.5C1176 586.283 1184.28 578 1194.5 578 1204.72 578 1213 586.283 1213 596.5 1213 606.717 1204.72 615 1194.5 615 1184.28 615 1176 606.717 1176 596.5Z" fill="#45A4FC" fill-rule="evenodd"/>
<path d="M877 843.5C877 833.283 885.283 825 895.5 825 905.717 825 914 833.283 914 843.5 914 853.717 905.717 862 895.5 862 885.283 862 877 853.717 877 843.5Z" fill="#45A4FC" fill-rule="evenodd"/>
<path d="M1078 843.5C1078 833.283 1086.51 825 1097 825 1107.49 825 1116 833.283 1116 843.5 1116 853.717 1107.49 862 1097 862 1086.51 862 1078 853.717 1078 843.5Z" fill="#45A4FC" fill-rule="evenodd"/>
<path d="M1280 843.5C1280 833.283 1288.51 825 1299 825 1309.49 825 1318 833.283 1318 843.5 1318 853.717 1309.49 862 1299 862 1288.51 862 1280 853.717 1280 843.5Z" fill="#45A4FC" fill-rule="evenodd"/>
<path d="M1482 843.5C1482 833.283 1490.51 825 1501 825 1511.49 825 1520 833.283 1520 843.5 1520 853.717 1511.49 862 1501 862 1490.51 862 1482 853.717 1482 843.5Z" fill="#45A4FC" fill-rule="evenodd"/>
<path d="M106 1313.5C106 1303.28 114.283 1295 124.5 1295 134.717 1295 143 1303.28 143 1313.5 143 1323.72 134.717 1332 124.5 1332 114.283 1332 106 1323.72 106 1313.5Z" fill="#45A4FC" fill-rule="evenodd"/>
<text font-family="IBM Plex Sans,IBM Plex Sans_MSFontService,sans-serif" font-weight="400" font-size="21" transform="translate(152.829 1324)">Netezza stack (m<tspan font-size="21" x="163.667" y="0">anaged by </tspan><tspan font-weight="700" font-size="21" x="266.833" y="0">Red Hat OpenShift</tspan><tspan font-weight="700" font-size="21" x="452.833" y="0">)</tspan></text>
<path d="M0 0-24.0024 0-24.0024 236.631 599.012 236.631 599.012 416.516" stroke="#45A4FC" stroke-width="10.6667" stroke-linecap="round" stroke-linejoin="round" stroke-miterlimit="10" stroke-dasharray="0 21.3333" fill="none" fill-rule="evenodd" transform="matrix(-1 0 0 1 1714.51 178.5)"/>
<path d="M0 0 203.887 0 203.887 139.791" stroke="#45A4FC" stroke-width="10.6667" stroke-linecap="round" stroke-linejoin="round" stroke-miterlimit="10" stroke-dasharray="0 21.3333" fill="none" fill-rule="evenodd" transform="matrix(-1 1.22465e-16 1.22465e-16 1 1026.39 704.5)"/>
<path d="M0 0 11.8394 0 11.8394 137.561" stroke="#45A4FC" stroke-width="10.6667" stroke-linecap="round" stroke-linejoin="round" stroke-miterlimit="10" stroke-dasharray="0 21.3333" fill="none" fill-rule="evenodd" transform="matrix(-1 1.22465e-16 1.22465e-16 1 1026.34 704.5)"/>
<path d="M1204.5 704.5 1216.34 704.5 1216.34 842.061" stroke="#45A4FC" stroke-width="10.6667" stroke-linecap="round" stroke-linejoin="round" stroke-miterlimit="10" stroke-dasharray="0 21.3333" fill="none" fill-rule="evenodd"/>
<path d="M1204.5 704.5 1420.76 704.5 1420.76 842.061" stroke="#45A4FC" stroke-width="10.6667" stroke-linecap="round" stroke-linejoin="round" stroke-miterlimit="10" stroke-dasharray="0 21.3333" fill="none" fill-rule="evenodd"/>
<path d="M0 0 28.8191 0 28.8191 37.4493 301.709 37.4493" stroke="#686F76" stroke-width="10.6667" stroke-linecap="round" stroke-linejoin="round" stroke-miterlimit="10" stroke-dasharray="0 21.3333" fill="none" fill-rule="evenodd" transform="matrix(1 0 0 -1 1204.5 703.949)"/>
<path d="M1000.51 404.5 1000.51 537.476 437.5 537.476 437.5 670.451" stroke="#D12671" stroke-width="10.6667" stroke-linecap="round" stroke-linejoin="round" stroke-miterlimit="10" stroke-dasharray="0 21.3333" fill="none" fill-rule="evenodd"/>
</g>
</svg>
